<?xml version="1.0" encoding="utf-8"?>
<!-- Generator: Adobe Illustrator 27.0.1, SVG Export Plug-In . SVG Version: 6.00 Build 0)  -->
<svg version="1.1" id="Layer_1" xmlns="http://www.w3.org/2000/svg" xmlns:xlink="http://www.w3.org/1999/xlink" x="0px" y="0px"
	 viewBox="0 0 1000 1000" style="enable-background:new 0 0 1000 1000;" xml:space="preserve">
<style type="text/css">
	.st0{fill:#3178C6;}
	.st1{fill:none;}
	.st2{fill:#7DBFE8;}
	.st3{fill:#FFFFFF;}
	.st4{fill:#3776AB;}
	.st5{fill:#FFFF00;}
	.st6{fill:none;stroke:#3178C6;stroke-width:12;stroke-linecap:round;stroke-miterlimit:10;}
</style>
<path class="st0" d="M158.08,591.27h-0.44c-2.84,0-5.02-2.4-5.02-5.02l-6.55-124.67l-35.81,1.97c-3.06,0-5.68-2.18-5.68-5.02
	l-1.96-40.39v-0.44c0-2.62,2.18-4.8,5.02-5.02l40.83-2.18l86.46-4.58c2.84,0,5.68,2.18,5.68,5.24l1.97,39.96
	c0,2.84-2.18,5.46-5.24,5.68l-34.5,1.75l6.55,124.89v0.22c0,2.84-2.4,5.02-5.02,5.24L158.08,591.27z"/>
<path class="st0" d="M276.64,578.11h-0.44c-2.4,0-4.15-1.96-4.37-4.37l-5.46-106.33c0-2.62,1.75-4.58,4.37-4.8l43.67-2.18h0.44
	c2.18,0,4.15,1.97,4.15,4.15l5.46,106.55v0.44c0,2.18-1.97,4.15-4.15,4.37L276.64,578.11z"/>
<path class="st0" d="M418.56,615.06c-49.56,0-74.45-33.84-74.45-67.03c0-31.22,22.05-63.97,71.83-63.97
	c54.15,0,56.55,48.25,56.55,55.46c0,10.04-4.15,18.34-17.03,22.71c-10.26,3.49-26.42,5.9-37.77,6.33c-3.49,0-4.58-1.53-5.46-4.15
	c-2.62-7.21-6.77-21.4-6.77-22.27c0-2.4,1.75-3.49,4.59-4.15c11.35-2.62,12.88-3.06,12.88-6.11c0-1.96-4.15-8.95-13.32-8.95
	c-10.48,0-19.21,9.17-19.21,22.71c0,15.5,11.35,32.97,38.65,32.97c1.53,0,3.28,0,4.8-0.22h0.44c3.06,0,6.77,1.96,6.77,5.68
	c0,2.18-5.68,17.03-8.95,24.45c-1.75,3.49-4.58,6.55-10.92,6.55H418.56z"/>
<path class="st0" d="M506.11,593.01c-4.8,0-6.99-0.87-8.3-4.58l-9.61-25.33c-0.22-0.66-0.44-1.31-0.44-1.75
	c0-3.27,4.37-3.71,6.99-3.71c12.88-0.22,19-6.33,19-11.57c0-2.84-2.84-6.33-5.89-10.26l-5.9-6.55
	c-9.61-10.92-13.54-20.31-13.54-28.6c0-24.67,35.59-37.77,64.19-37.77c8.52,0,10.7,0.87,12.23,4.8l9.83,25.33
	c0.44,0.87,0.44,1.53,0.44,2.18c0,2.4-2.4,3.28-5.24,3.28H569c-13.1,0-18.12,4.37-18.12,8.73c0,3.71,3.27,7.86,11.57,17.03
	c10.04,10.92,14.41,20.74,14.41,29.04c0,25.76-39.08,39.74-68.34,39.74H506.11z"/>
<path class="st0" d="M668.78,618.28c-49.56,0-74.45-33.84-74.45-67.03c0-31.22,22.05-63.97,71.83-63.97
	c54.15,0,56.55,48.25,56.55,55.46c0,10.04-4.15,18.34-17.03,22.71c-10.26,3.49-26.42,5.9-37.77,6.33c-3.49,0-4.58-1.53-5.46-4.15
	c-2.62-7.21-6.77-21.4-6.77-22.27c0-2.4,1.75-3.49,4.59-4.15c11.35-2.62,12.88-3.06,12.88-6.11c0-1.96-4.15-8.95-13.32-8.95
	c-10.48,0-19.21,9.17-19.21,22.71c0,15.5,11.35,32.97,38.65,32.97c1.53,0,3.28,0,4.8-0.22h0.44c3.06,0,6.77,1.96,6.77,5.68
	c0,2.18-5.68,17.03-8.95,24.45c-1.75,3.49-4.58,6.55-10.92,6.55H668.78z"/>
<path class="st0" d="M893.88,567.69c-8.95-8.3-11.79-18.12-11.79-30.35v-7.21c0-13.33-3.45-25.15-9.57-35.08
	c-0.22-0.16-0.41-0.35-0.51-0.57c-0.12-0.25-0.22-0.5-0.33-0.75c-13.25-20.35-38.01-32.38-67.54-32.38
	c-7.86,0-15.94,0.87-24.45,2.62l-24.45-1.31h-0.44c-2.18,0-4.15,1.97-4.37,4.37l-5.9,113.54c0,2.62,1.75,4.58,4.37,4.8l43.67,2.18
	h0.44c2.18,0,4.15-1.96,4.15-4.15l4.15-79.26c15.94,0.87,27.07,10.48,27.07,33.41v7.42c0,38.86,34.93,50.44,38.86,50.44
	c1.96,0,4.15-0.66,6.33-2.4c0,0,21.62-15.5,21.62-15.94c1.53-1.09,2.18-2.4,2.18-3.71C897.38,570.96,895.2,568.78,893.88,567.69z"/>
<g>
	<path class="st1" d="M351.55,487.08c0,0,67.57-46.11,181.24-47.7c113.68-1.59,189.99,58.83,189.99,58.83"/>
	<path class="st0" d="M387,450.31c1.22,16.4-7.61,27.46-8.87,27.99c-0.69,0.29-1.49,0.16-2.7-0.14l-7.7-1.87
		c-0.38-0.11-0.6-0.29-0.69-0.52c-0.22-0.52,0.08-1.25,0.48-1.9c3.76-5.79,4.95-11.91,4.63-18.07l-15.33,5.64
		c-0.57,0.24-1.25-0.08-1.49-0.65l-0.05-0.11l-3.14-8.81c-0.24-0.57-0.23-1.19,0.34-1.43l0.11-0.05l17.42-6.46
		c-0.34-1.28-0.74-2.53-1.16-3.84c-0.16-0.54-0.05-1.06,0.29-1.54c-1.78,0.89-3.59,1.73-5.37,2.49c-1.32,0.56-2.66,1.06-3.94,1.54
		c-0.46,0.19-1.01,0.16-1.29-0.33l-4.32-6.82l-0.05-0.11c-0.2-0.46-0.14-0.96,0.24-1.18c6.63-4.31,17.05-12.26,22.58-16.91
		c0.15-0.13,0.26-0.18,0.43-0.25c0.69-0.29,1.46-0.08,1.85,0.36l6.98,7.99c0.13,0.15,0.2,0.32,0.28,0.49
		c0.24,0.57,0.18,1.21-0.5,1.84c-3.85,3.19-8.74,6.49-14.02,9.35l8.61-2.98c1.31-0.42,2.24-0.14,2.73,1
		c0.49,1.15,0.92,2.32,1.29,3.51l13.39-4.95c0.71-0.24,1.7,0.02,1.97,0.65l3.08,8.84c0.27,0.63-0.11,1.33-0.74,1.6L387,450.31z"/>
	<path class="st2" d="M425.63,459.4l-0.12,0.03c-0.72,0.2-1.37-0.27-1.61-0.92c-2.02-4.55-5.05-13.28-7.63-21.29l-6.3,1.27
		c-0.74,0.14-1.32-0.35-1.5-1.01l-1.63-7.62c-0.12-0.68,0.29-1.31,0.89-1.47l0.12-0.03l5.34-1.01c-0.7-2.33-1.24-4.31-1.59-5.57
		c-0.1-0.62-0.06-1.4,0.66-1.6c1.38-0.38,5.98-1.51,8.2-2.11c0.96-0.26,1.75,0.49,1.97,1.07c0.07,0.24,0.86,2.67,2.01,6.17
		l13.81-2.61c2.41-0.4,5.83-0.17,6.83,3.49c2,7.33-4.87,16.44-6.91,17c-0.84,0.23-1.68-0.25-4.13-1.65
		c-1.33-0.61-2.6-1.23-2.79-1.95c-0.11-0.42,0.01-0.91,0.23-1.29c0.85-1.39,1.34-3.59,1.21-4.08c-0.07-0.24-0.19-0.21-0.37-0.16
		l-4.78,0.92c3.02,9.63,6.33,20.09,6.33,20.09c0.2,0.72-0.24,1.49-0.94,1.74L425.63,459.4z"/>
	<path class="st0" d="M464.71,419.36c-0.61,0.59-1.01,0.84-1.38,0.89c-0.43,0.06-0.78-0.2-1.28-0.57
		c-10.6-8.1-12.02-9.21-12.17-10.26c-0.04-0.31,0.04-0.57,0.32-0.8l7.47-6.68c0.49-0.51,1.06-0.91,1.68-1
		c1.79-0.26,14.09,5.65,14.55,8.85c0.07,0.49-0.06,0.89-0.5,1.33L464.71,419.36z M502.22,422.51c0.15,0.17,0.18,0.35,0.19,0.48
		c0.06,0.43-0.12,0.9-0.45,1.26c-9.83,10.35-20.78,18.22-32.53,23.56c-0.18,0.09-0.35,0.18-0.54,0.2c-0.43,0.06-0.9-0.12-1.21-0.52
		l-7.67-10.03c-0.09-0.18-0.18-0.35-0.2-0.54c-0.06-0.43,0.12-0.9,0.52-1.21c9.13-5.15,26.44-16.46,33.45-22.37
		c0.18-0.09,0.35-0.18,0.48-0.19c0.43-0.06,0.9,0.12,1.21,0.52L502.22,422.51z"/>
	<path class="st0" d="M559.42,419.41c7.6,2.16,8,2.81,7.91,4.12c-0.35,5.47-7.47,18.5-19.99,21.14c-0.25,0.05-0.51,0.09-0.69,0.08
		c-1-0.06-1.57-0.79-2.37-2.02l-4.32-6.64c-0.17-0.26-0.22-0.45-0.21-0.7c0.04-0.62,0.88-1.07,1.64-1.33
		c7.89-2.37,10.41-10.64,10.79-14.79l-17.52-0.23l-0.12-0.01c-0.68-0.04-1.2-0.7-1.22-1.39l0.13-9.04l0.01-0.19
		c0.04-0.68,0.32-1.17,1.01-1.12l47.63,0.7l0.12,0.01c0.68,0.04,1.58,0.72,1.6,1.41l-0.13,8.98l-0.01,0.12
		c-0.05,0.75-0.7,1.2-1.39,1.22L559.42,419.41z M572.5,403.95l-26.87-2.38c-0.68-0.04-1.27-0.64-1.23-1.33l0.01-0.12l0.86-9.62
		c0.11-0.74,0.77-1.26,1.51-1.21l26.87,2.38c0.68,0.04,1.27,0.64,1.22,1.39l-0.01,0.12l-0.86,9.62c-0.04,0.68-0.7,1.2-1.38,1.16
		L572.5,403.95z"/>
	<path class="st2" d="M601.87,449.99c-0.67-0.15-1.09-0.82-0.95-1.49l4.21-18.97c-8.46,1.05-12.6,0.71-12.66,0.7
		c-0.49-0.11-1.05-0.43-1.11-1.01l-1.15-7.46c-0.02-0.2-0.05-0.33-0.01-0.51c0.11-0.49,0.45-0.86,0.97-0.93
		c9.9-1.5,24.11-5.17,32.35-7.23c0.2-0.02,0.39-0.04,0.57,0c0.55,0.12,1.15,0.57,1.3,1.05l3.01,9.15c0.08,0.21,0.04,0.39,0,0.57
		c-0.11,0.49-0.53,0.97-1.01,1.11c-3.79,1.26-9.63,2.58-15.8,3.64l4.44,0.99c0.61,0.13,1.05,0.74,0.9,1.41l-4.46,20.06
		c-0.15,0.67-0.82,1.09-1.42,0.96L601.87,449.99z"/>
	<path class="st0" d="M627.28,452.88c-0.65-0.23-0.98-0.95-0.81-1.61l2.61-9.32c0.23-0.64,0.62-1.17,1.26-0.94l13.71,4.18
		l6.53-18.23l-9.9-3.75c-0.64-0.23-0.96-1.01-0.73-1.65l3.43-9.02c0.25-0.7,0.95-0.98,1.65-0.73l32.77,12.47
		c0.64,0.23,0.92,0.93,0.69,1.57l-3.39,9.1c-0.21,0.59-0.93,0.92-1.51,0.71l-0.12-0.04l-9.9-3.75l-6.21,17.35l14.65,4.52l0.12,0.04
		c0.59,0.21,1.22,1.03,1.05,1.7l-2.67,9.3l-0.04,0.12c-0.21,0.59-0.91,0.87-1.51,0.71L627.28,452.88z"/>
	<path class="st2" d="M724.69,476.71c0.02,0.22-0.07,0.39-0.13,0.5c-0.21,0.38-0.64,0.65-1.11,0.74
		c-14.08,2.37-27.56,2.08-40.16-0.7c-0.19-0.04-0.39-0.07-0.55-0.16c-0.38-0.21-0.64-0.64-0.65-1.14l-0.11-12.63
		c0.04-0.19,0.07-0.39,0.16-0.55c0.21-0.38,0.64-0.64,1.14-0.65c10.4,1.37,31.03,2.73,40.19,2.21c0.19,0.04,0.39,0.07,0.5,0.13
		c0.38,0.21,0.64,0.64,0.65,1.14L724.69,476.71z M696.59,451.66c-0.84,0.11-1.31,0.06-1.64-0.12c-0.38-0.21-0.51-0.63-0.68-1.22
		c-3.61-12.84-4.08-14.59-3.57-15.52c0.15-0.27,0.38-0.43,0.74-0.45l9.98-0.85c0.7-0.11,1.4-0.09,1.94,0.21
		c1.58,0.87,7.87,12.98,6.32,15.82c-0.24,0.44-0.58,0.67-1.2,0.76L696.59,451.66z"/>
</g>
<g>
	<path class="st0" d="M904.78,613.22l-17.32-5.06c-2.12-0.62-3.34-2.84-2.72-4.96l5.22-17.87c0.62-2.12,2.84-3.34,4.96-2.72
		l17.32,5.06c2.12,0.62,3.34,2.84,2.72,4.96l-5.22,17.87C909.12,612.62,906.9,613.84,904.78,613.22z"/>
	<g>
		<path class="st3" d="M891.68,603.54l-0.03-0.01c-0.21-0.06-0.32-0.29-0.26-0.49l2.27-9.58l-2.7-0.63
			c-0.23-0.07-0.37-0.29-0.31-0.5l0.75-3.1l0.01-0.03c0.06-0.2,0.27-0.32,0.48-0.27l3.07,0.72l6.5,1.52
			c0.21,0.06,0.37,0.29,0.3,0.52l-0.74,3.07c-0.06,0.21-0.28,0.37-0.51,0.32l-2.59-0.61l-2.27,9.59l0,0.02
			c-0.06,0.21-0.29,0.33-0.49,0.29L891.68,603.54z"/>
		<path class="st3" d="M899.76,602.91c-0.01-0.04,0.01-0.09,0.02-0.12c0.07-0.25,0.34-0.26,0.44-0.23l0.06,0.02
			c1.1,0.32,2.47,0.08,2.77-0.97c0.16-0.54,0.01-1.13-0.46-2.77c-0.36-1.22-0.38-2.23-0.15-3.04c0.76-2.61,4.1-3.23,6.82-2.44
			c0.63,0.18,0.93,0.35,0.93,0.72l-0.15,2.61c0,0.05-0.01,0.1-0.02,0.14c-0.08,0.26-0.35,0.29-0.45,0.26l-0.1-0.03
			c-1.05-0.31-2.15-0.2-2.43,0.74c-0.16,0.56,0.01,1.46,0.44,2.75c0.38,1.22,0.4,2.23,0.16,3.06c-0.8,2.74-4.49,3.42-7.29,2.61
			c-0.16-0.05-0.31-0.09-0.46-0.15c-0.21-0.06-0.35-0.3-0.34-0.53L899.76,602.91z"/>
	</g>
</g>
<path class="st0" d="M307.38,451.31c-5.12,3.43-11.28,5.43-17.9,5.43c-17.79,0-32.22-14.44-32.22-32.22s14.44-32.22,32.22-32.22
	s32.22,14.44,32.22,32.22c0,9.62-4.23,18.26-10.92,24.17l-28.77-37.06h-5.42v25.77h4.34v-20.26L307.38,451.31z M298.43,428.4
	l4.3,5.53v-22.3h-4.3C298.43,411.63,298.43,428.4,298.43,428.4z"/>
<path class="st2" d="M518.62,413.38c0.33,1.19-0.36,2.43-1.55,2.76c-1.19,0.33-2.43-0.36-2.76-1.55l0,0
	c-0.33-1.19,0.36-2.43,1.55-2.76C517.05,411.49,518.28,412.19,518.62,413.38L518.62,413.38z M518.29,402.35
	c-1.3,0.36-2.74,1.76-4.01,3.85c-2.16-1.11-4.12-1.55-5.42-1.19c-0.4,0.11-0.73,0.3-0.99,0.57c-1.11,1.14-0.74,3.6,0.78,6.4
	c-2.68,1.73-4.19,3.71-3.76,5.24c0.43,1.53,2.76,2.45,5.95,2.53c0.16,3.19,1.13,5.5,2.68,5.89c0.36,0.09,0.74,0.08,1.14-0.03
	c1.3-0.36,2.74-1.76,4.01-3.85c2.16,1.12,4.12,1.56,5.42,1.19c0.4-0.11,0.73-0.3,0.99-0.56c1.11-1.14,0.74-3.6-0.78-6.4
	c2.68-1.72,4.18-3.71,3.75-5.24c-0.43-1.53-2.76-2.45-5.95-2.53c-0.16-3.19-1.13-5.5-2.68-5.89
	C519.06,402.23,518.68,402.24,518.29,402.35L518.29,402.35z M518.58,403.4L518.58,403.4c0.22-0.05,0.41-0.06,0.57-0.02
	c0.75,0.19,1.42,1.51,1.7,3.38c0.07,0.46,0.12,0.95,0.15,1.46c-0.99,0.03-2.05,0.14-3.14,0.32c-0.88-0.7-1.76-1.3-2.62-1.81
	C516.37,404.87,517.6,403.68,518.58,403.4L518.58,403.4z M509.15,406.06c0.98-0.27,2.64,0.1,4.58,1.09
	c-0.47,0.88-0.91,1.85-1.29,2.9c-1.04,0.41-2,0.87-2.86,1.36c-0.24-0.44-0.45-0.88-0.63-1.3c-0.73-1.74-0.84-3.22-0.31-3.77
	C508.81,406.2,509,406.11,509.15,406.06L509.15,406.06z M514.69,407.68c0.57,0.33,1.15,0.71,1.73,1.14
	c-0.43,0.1-0.87,0.21-1.31,0.33c-0.44,0.12-0.88,0.26-1.3,0.4C514.08,408.88,514.38,408.26,514.69,407.68L514.69,407.68z
	 M515.41,410.21c0.71-0.2,1.43-0.37,2.15-0.5c0.55,0.45,1.1,0.94,1.64,1.48c0.53,0.52,1.03,1.05,1.51,1.6
	c-0.12,0.72-0.27,1.44-0.45,2.16c-0.19,0.74-0.4,1.45-0.63,2.12c-0.69,0.26-1.39,0.49-2.11,0.69c-0.71,0.2-1.43,0.36-2.15,0.5
	c-0.55-0.45-1.1-0.95-1.64-1.48c-0.53-0.52-1.03-1.05-1.51-1.6c0.11-0.72,0.27-1.44,0.45-2.16c0.19-0.74,0.4-1.45,0.63-2.12
	C513.99,410.64,514.69,410.41,515.41,410.21L515.41,410.21z M511.97,411.44c-0.13,0.43-0.26,0.87-0.37,1.31
	c-0.11,0.44-0.21,0.87-0.3,1.3c-0.43-0.56-0.83-1.13-1.18-1.7C510.71,412.04,511.33,411.73,511.97,411.44L511.97,411.44z
	 M518.98,409.48c0.7-0.09,1.38-0.15,2.04-0.17c0,0.66-0.04,1.35-0.12,2.04c-0.3-0.32-0.61-0.64-0.93-0.96
	C519.65,410.08,519.31,409.77,518.98,409.48L518.98,409.48z M522.12,409.3c0.51,0.01,1,0.05,1.46,0.11
	c1.87,0.25,3.21,0.88,3.42,1.62c0.2,0.74-0.62,1.98-2.09,3.16c-0.36,0.29-0.76,0.57-1.17,0.84c-0.53-0.85-1.15-1.71-1.87-2.58
	C522.03,411.35,522.11,410.3,522.12,409.3L522.12,409.3z M509.19,412.92c0.53,0.85,1.15,1.71,1.87,2.58
	c-0.16,1.1-0.24,2.16-0.25,3.15c-0.51-0.01-1-0.05-1.46-0.11c-1.87-0.24-3.21-0.88-3.42-1.62s0.61-1.98,2.08-3.16
	C508.37,413.48,508.77,413.2,509.19,412.92z M521.62,413.9c0.43,0.56,0.83,1.13,1.18,1.7c-0.58,0.32-1.19,0.64-1.84,0.92
	c0.13-0.43,0.26-0.86,0.37-1.31C521.43,414.77,521.53,414.33,521.62,413.9L521.62,413.9z M512.03,416.61
	c0.3,0.32,0.61,0.64,0.93,0.96c0.33,0.31,0.66,0.62,0.99,0.91c-0.7,0.09-1.38,0.15-2.04,0.17
	C511.91,417.99,511.95,417.3,512.03,416.61L512.03,416.61z M523.34,416.55c0.24,0.45,0.45,0.88,0.63,1.3
	c0.73,1.74,0.84,3.22,0.31,3.77c-0.12,0.13-0.29,0.21-0.51,0.28c-0.98,0.27-2.64-0.1-4.58-1.09c0.47-0.88,0.91-1.85,1.29-2.9
	C521.52,417.49,522.48,417.04,523.34,416.55L523.34,416.55z M511.93,419.75c0.99-0.03,2.05-0.14,3.14-0.33
	c0.88,0.7,1.76,1.3,2.62,1.81c-1.14,1.86-2.36,3.05-3.35,3.32c-0.21,0.05-0.41,0.06-0.57,0.02c-0.75-0.19-1.42-1.51-1.7-3.38
	C512,420.75,511.96,420.26,511.93,419.75L511.93,419.75z M516.5,419.14c0.43-0.1,0.87-0.21,1.31-0.33c0.44-0.12,0.88-0.26,1.3-0.4
	c-0.27,0.67-0.57,1.3-0.88,1.87C517.67,419.95,517.09,419.57,516.5,419.14z"/>
<g>
	<circle class="st2" cx="553.48" cy="482.4" r="11.07"/>
	<g>
		<path class="st4" d="M554.92,474.63l0.59,0.13l0.48,0.17l0.39,0.2l0.3,0.21l0.22,0.22l0.16,0.22l0.11,0.22l0.07,0.2l0.03,0.17
			l0.01,0.13l-0.01,0.09v3.52l-0.03,0.42l-0.09,0.36l-0.14,0.3l-0.17,0.25l-0.2,0.2l-0.22,0.16l-0.23,0.13l-0.23,0.09l-0.22,0.07
			l-0.2,0.05l-0.17,0.03l-0.14,0.01h-3.94l-0.46,0.03l-0.39,0.09l-0.33,0.15l-0.27,0.18l-0.22,0.21l-0.18,0.23l-0.13,0.24l-0.1,0.24
			l-0.07,0.23l-0.05,0.21l-0.03,0.18l-0.01,0.14v2.02h-1.47l-0.14-0.02l-0.18-0.05l-0.21-0.08l-0.23-0.12l-0.24-0.17l-0.24-0.24
			l-0.23-0.3l-0.21-0.39l-0.18-0.48l-0.14-0.58l-0.09-0.69l-0.03-0.81l0.04-0.8l0.11-0.69l0.16-0.57l0.21-0.47l0.24-0.38l0.26-0.29
			l0.28-0.22l0.28-0.16l0.26-0.11l0.24-0.07l0.21-0.03l0.16-0.01h0.11l0.04,0.01h5.38v-0.55h-3.85l-0.01-1.81l-0.01-0.24l0.03-0.22
			l0.07-0.2l0.11-0.18l0.16-0.17l0.2-0.15l0.25-0.13l0.29-0.12l0.34-0.1l0.38-0.08l0.42-0.07l0.47-0.04l0.51-0.03l0.55-0.01
			l0.84,0.03L554.92,474.63z M550.76,475.93l-0.15,0.22l-0.05,0.27l0.05,0.27l0.15,0.22l0.22,0.15l0.27,0.06l0.27-0.06l0.22-0.15
			l0.15-0.22l0.05-0.27l-0.05-0.27l-0.15-0.22l-0.22-0.15l-0.27-0.06l-0.27,0.06L550.76,475.93z"/>
		<path class="st5" d="M559.39,478.55l0.18,0.04l0.21,0.08l0.23,0.12l0.24,0.18l0.24,0.23l0.23,0.31l0.21,0.39l0.18,0.48l0.14,0.58
			l0.09,0.69l0.03,0.81l-0.04,0.81l-0.11,0.69l-0.16,0.57l-0.21,0.47l-0.24,0.38l-0.26,0.3l-0.28,0.22l-0.28,0.16l-0.26,0.11
			l-0.24,0.06l-0.21,0.03l-0.16,0.01l-0.11-0.01h-5.42v0.54h3.85l0.01,1.82l0.01,0.24l-0.03,0.22l-0.07,0.2l-0.11,0.19l-0.16,0.16
			l-0.2,0.16l-0.25,0.13l-0.29,0.11l-0.34,0.1l-0.38,0.09l-0.42,0.06l-0.47,0.05l-0.51,0.03l-0.55,0.01l-0.84-0.03l-0.71-0.09
			l-0.59-0.13l-0.48-0.16l-0.39-0.2l-0.3-0.22l-0.22-0.22l-0.16-0.22l-0.11-0.22l-0.07-0.2l-0.03-0.16l-0.01-0.13l0.01-0.09v-3.52
			l0.03-0.42l0.09-0.36l0.14-0.3l0.17-0.25l0.2-0.21l0.22-0.16l0.23-0.13l0.23-0.09l0.22-0.07l0.2-0.04l0.17-0.03l0.14-0.01
			l0.09-0.01h3.85l0.45-0.03l0.39-0.09l0.33-0.14l0.27-0.18l0.22-0.21l0.18-0.23l0.13-0.24l0.1-0.24l0.07-0.23l0.05-0.21l0.03-0.18
			l0.01-0.14v-2.02h1.38l0.09,0.01L559.39,478.55z M555.12,487.95l-0.15,0.22l-0.05,0.27l0.05,0.27l0.15,0.22l0.22,0.15l0.27,0.05
			l0.27-0.05l0.22-0.15l0.15-0.22l0.05-0.27l-0.05-0.27l-0.15-0.22l-0.22-0.15l-0.27-0.05l-0.27,0.05L555.12,487.95z"/>
	</g>
</g>
<g>
	<path class="st2" d="M819.34,485.03c0.31,0.37,0.26,0.71,0.1,0.94c-0.11,0.15-0.25,0.24-0.36,0.36c-2.93,2.27-3.97,5.02-2.52,6.02
		c0.79,0.55,2.21,0.25,3.39-1.46l0.05-0.08c0.21-0.31,0.67-0.7,1.19-0.42l4,2.29l0.13,0.09c0.46,0.32,0.49,0.71,0.19,1.15
		l-0.09,0.13c-1.22,1.76-0.46,3.16,0.44,3.78c1.35,0.94,2.84,0.2,3.87-1.28c0.83-1.2,1.29-2.73,1.18-3.6
		c-0.04-0.33-0.01-0.53,0.06-0.64c0.16-0.23,0.48-0.2,0.83-0.22l4.53-0.44c0.22-0.04,0.4,0.02,0.53,0.1
		c0.18,0.12,0.27,0.38,0.24,0.69c-0.34,3.54-1.53,6.56-3.14,8.88c-3.38,4.87-8.62,6.77-12.04,4.4c-1.53-1.06-2.67-2.95-3.14-5.8
		c-2.65,1.48-5,1.33-6.7,0.14c-3.26-2.26-4.15-8.27-0.2-13.96c0.99-1.43,2.27-2.84,3.89-4.13c0.37-0.31,0.58-0.35,0.81-0.19
		c0.13,0.09,0.24,0.25,0.44,0.46L819.34,485.03z"/>
</g>
<polygon class="st2" points="610.05,488.37 608.38,499.25 600.44,492.25 589.95,490.91 597.01,482.48 598.68,471.6 606.62,478.6 
	617.11,479.94 "/>
<polygon class="st2" points="476.96,479.48 474.48,493.1 464.75,484.02 451.59,481.97 460.78,471.61 463.25,457.99 472.99,467.07 
	486.14,469.13 "/>
<polygon class="st2" points="387.67,395.58 391.17,408.97 378.51,404.86 365.73,408.55 369.67,395.29 366.16,381.9 378.82,386.01 
	391.61,382.31 "/>
<polygon class="st2" points="752.06,427.32 760.06,438.62 746.77,439.23 736.1,447.19 735.12,433.39 727.12,422.09 740.41,421.48 
	751.08,413.52 "/>
<polygon class="st2" points="736.74,591.8 748.73,598.71 736.91,604.83 730.56,616.53 723.89,604.4 711.9,597.49 723.72,591.37 
	730.07,579.67 "/>
<polygon class="st2" points="475.23,592.44 470.65,605.51 462.45,595.02 449.78,590.94 460.47,582.14 465.04,569.08 473.24,579.56 
	485.91,583.64 "/>
<polygon class="st2" points="265.38,598.39 258.98,610.66 252.37,599.1 240.42,593.23 252.27,586.07 258.67,573.8 265.28,585.36 
	277.23,591.22 "/>
<polygon class="st2" points="226.21,490.72 212.59,493.14 217.7,480.85 215.04,467.81 227.95,472.8 241.58,470.38 236.46,482.67 
	239.12,495.71 "/>
<polygon class="st2" points="347.95,492.84 336.02,499.87 336.52,486.56 329.48,475.27 343.32,475.45 355.25,468.42 354.74,481.72 
	361.78,493.02 "/>
<polygon class="st2" points="97.13,393.37 108.18,401.7 95.69,406.32 87.94,417.14 82.82,404.28 71.77,395.94 84.26,391.33 
	92.01,380.51 "/>
<circle class="st0" cx="279.72" cy="383.72" r="6.89"/>
<circle class="st0" cx="261.77" cy="391.3" r="6.89"/>
<circle class="st0" cx="299.34" cy="382.79" r="6.89"/>
<g>
	<line class="st6" x1="781.36" y1="450.44" x2="799" y2="419"/>
	<line class="st6" x1="817.48" y1="449.99" x2="799.07" y2="419"/>
</g>
<g>
	<line class="st6" x1="859.94" y1="462.31" x2="895.47" y2="456.19"/>
	<line class="st6" x1="883.05" y1="490.08" x2="895.52" y2="456.25"/>
</g>
</svg>
