<svg width="68" height="68" viewBox="0 0 68 68" fill="none" xmlns="http://www.w3.org/2000/svg">
<g id="NextUI Isotipo Light">
<path id="Rectangle 1" d="M50 0H18C8.05888 0 0 8.05888 0 18V50C0 59.9411 8.05888 68 18 68H50C59.9411 68 68 59.9411 68 50V18C68 8.05888 59.9411 0 50 0Z" fill="white"/>
<path id="Path 2" d="M37.329 19.5869H39.9732V38.7607C40.0039 40.6148 39.5246 42.4418 38.5875 44.042C37.6634 45.5931 36.3304 46.8601 34.7344 47.7043C33.0895 48.5951 31.178 49.0405 29.0001 49.0405C26.8319 49.0405 24.9229 48.5928 23.2728 47.6972C21.6762 46.8516 20.3416 45.585 19.4137 44.0349C18.4761 42.4375 17.9967 40.6127 18.0281 38.7607V19.5869H20.6728V38.5769C20.6473 40.0133 21.0035 41.4307 21.705 42.6845C22.3891 43.8826 23.3956 44.8649 24.6101 45.5196C25.8586 46.2077 27.3221 46.5518 29.0006 46.5518C30.6792 46.5518 32.145 46.2077 33.3981 45.5196C34.6148 44.8677 35.6222 43.8848 36.3039 42.6845C37.0009 41.4293 37.3545 40.0124 37.329 38.5769V19.5869ZM50.3095 19.5869V48.5456H47.6653V19.5869H50.3095Z" fill="black"/>
</g>
</svg>
