<?xml version="1.0" encoding="utf-8"?>
<!-- Generator: Adobe Illustrator 27.0.1, SVG Export Plug-In . SVG Version: 6.00 Build 0)  -->
<svg version="1.1" xmlns="http://www.w3.org/2000/svg" xmlns:xlink="http://www.w3.org/1999/xlink" x="0px" y="0px"
	 viewBox="0 0 775.61 597.18" style="enable-background:new 0 0 775.61 597.18;" xml:space="preserve">
<style type="text/css">
	.st0{display:none;}
	.st1{display:inline;}
</style>
<g id="Layer_1">
	<g>
		<path d="M0,0l95.88,133.74h169.56v463.32h153.6V234.45l-15.92-27.23l-0.08-0.12v374.04h-121V16.04h132.95l58.83,101.78h18.43
			l9.19,15.92h86.37V0H0z"/>
		<path d="M403.05,207.1v374.04h0.08V207.22L403.05,207.1z M111.8,15.92v101.9h169.52v463.32h0.72V16.04h132.95l58.83,101.78h98.08
			V15.92H111.8z"/>
		<path d="M622.76,0.12v343.47L501.44,133.74h-82.39v100.7l-15.92-27.23l-0.08-0.12v374.04h-121V16.04h132.95l58.83,101.78h18.43
			l-58.91-101.9l-9.15-15.8H266.12v597.06h152.85V265.85l0.08,0.12l193.77,331.21h162.8V0.12H622.76z"/>
		<polygon points="501.44,133.74 483.05,133.74 473.82,117.82 492.25,117.82 		"/>
		<path d="M282.04,581.14v0.12h121v-0.12H282.04z M638.68,16.04v386.89L483.05,133.74h-64v100.7l202.92,346.81h137.72V16.04H638.68z
			"/>
		<polygon points="483.05,133.74 419.05,133.74 419.05,234.45 403.12,207.22 403.12,117.82 473.82,117.82 		"/>
	</g>
</g>
<g id="Layer_2" class="st0">
	<g class="st1">
		<path d="M0-178.32L95.88-44.58h169.56v463.32h153.6V56.13L403.12,28.9l-0.08-0.12v374.04h-121v-565.1h132.95L473.82-60.5h18.43
			l9.19,15.92h86.37v-133.74H0z"/>
		<path d="M403.05,28.78v374.04h0.08V28.9L403.05,28.78z M111.8-162.4v101.9h169.52v463.32h0.72v-565.1h132.95L473.82-60.5h98.08
			v-101.9H111.8z"/>
		<path d="M622.76-178.2v343.47L501.44-44.58h-82.39v100.7L403.12,28.9l-0.08-0.12v374.04h-121v-565.1h132.95L473.82-60.5h18.43
			l-58.91-101.9l-9.15-15.8H266.12v597.06h152.85V87.53l0.08,0.12l193.77,331.21h162.8V-178.2H622.76z"/>
		<polygon points="501.44,-44.58 483.05,-44.58 473.82,-60.5 492.25,-60.5 		"/>
		<path d="M282.04,402.82v0.12h121v-0.12H282.04z M638.68-162.28v386.89L483.05-44.58h-64v100.7l202.92,346.81h137.72v-565.22
			H638.68z"/>
		<polygon points="483.05,-44.58 419.05,-44.58 419.05,56.13 403.12,28.9 403.12,-60.5 473.82,-60.5 		"/>
	</g>
</g>
</svg>
