<?xml version="1.0" standalone="no"?>
<!DOCTYPE svg PUBLIC "-//W3C//DTD SVG 20010904//EN"
 "http://www.w3.org/TR/2001/REC-SVG-20010904/DTD/svg10.dtd">
<svg version="1.0" xmlns="http://www.w3.org/2000/svg"
 width="512.000000pt" height="512.000000pt" viewBox="0 0 512.000000 512.000000"
 preserveAspectRatio="xMidYMid meet">

<g transform="translate(0.000000,512.000000) scale(0.100000,-0.100000)"
fill="#000000" stroke="none">
<path d="M1176 5109 c-381 -50 -740 -276 -951 -598 -101 -154 -160 -297 -202
-492 -17 -79 -18 -171 -18 -1454 0 -1462 -2 -1411 50 -1589 96 -331 322 -619
625 -796 98 -58 251 -117 383 -148 l112 -27 1380 0 c1523 0 1418 -4 1630 62
305 96 586 323 755 613 58 98 117 251 148 383 l27 112 0 1385 0 1385 -27 112
c-66 278 -195 503 -396 694 -183 174 -384 279 -662 345 -70 17 -166 18 -1430
20 -754 1 -1385 -2 -1424 -7z m384 -2249 l5 -785 23 -65 c68 -189 219 -324
417 -375 89 -23 270 -21 368 4 200 52 347 191 413 391 17 51 19 114 24 835 l5
780 98 3 98 3 -4 -798 c-3 -732 -4 -803 -21 -858 -80 -267 -261 -449 -531
-531 -84 -26 -102 -28 -270 -28 -167 0 -186 2 -268 27 -284 87 -472 280 -537
549 -19 79 -20 117 -20 861 l0 778 98 -3 97 -3 5 -785z m2225 -305 l0 -1090
-97 -3 -98 -3 0 1096 0 1096 98 -3 97 -3 0 -1090z"/>
</g>
</svg>
